<?xml version="1.0"?>
<svg width="16" height="16" xmlns="http://www.w3.org/2000/svg" xmlns:svg="http://www.w3.org/2000/svg">

 <g class="layer">
  <title>Layer 1</title>
  <path d="m1,8c0,-0.27 0.11,-0.52 0.29,-0.71l6,-6c0.39,-0.39 1.03,-0.39 1.42,0l6,6c0.18,0.19 0.29,0.44 0.29,0.71s-0.11,0.52 -0.29,0.71c-0.39,0.39 -1.03,0.39 -1.42,0l-5.29,-5.3l-5.29,5.3c-0.39,0.39 -1.03,0.39 -1.42,0c-0.18,-0.19 -0.29,-0.44 -0.29,-0.71zm0,0" fill="#fefefe" id="svg_1"/>
  <path d="m1,14c0,-0.27 0.11,-0.52 0.28,-0.71l6,-6c0.39,-0.39 1.03,-0.39 1.42,0l6,6c0.19,0.19 0.3,0.44 0.3,0.71s-0.11,0.52 -0.3,0.71c-0.39,0.39 -1.03,0.39 -1.42,0l-5.28,-5.3l-5.3,5.3c-0.39,0.39 -1.03,0.39 -1.42,0c-0.17,-0.19 -0.28,-0.44 -0.28,-0.71zm0,0" fill="#fefefe" id="svg_2"/>
 </g>
</svg>