<svg xmlns="http://www.w3.org/2000/svg" xmlns:xlink="http://www.w3.org/1999/xlink" version="1.1" width="256" height="256" viewBox="0 0 256 256" xml:space="preserve">

<defs>
</defs>
<g style="stroke: none; stroke-width: 0; stroke-dasharray: none; stroke-linecap: butt; stroke-linejoin: miter; stroke-miterlimit: 10; fill: none; fill-rule: nonzero; opacity: 1;" transform="translate(1.4065934065934016 1.4065934065934016) scale(2.81 2.81)" >
	<path d="M 87.803 77.194 L 68.212 57.602 c 9.5 -14.422 7.912 -34.054 -4.766 -46.732 c 0 0 -0.001 0 -0.001 0 c -14.495 -14.493 -38.08 -14.494 -52.574 0 c -14.494 14.495 -14.494 38.079 0 52.575 c 7.248 7.247 16.767 10.87 26.287 10.87 c 7.134 0 14.267 -2.035 20.445 -6.104 l 19.591 19.591 C 78.659 89.267 80.579 90 82.498 90 s 3.84 -0.733 5.305 -2.197 C 90.732 84.873 90.732 80.124 87.803 77.194 z M 21.48 52.837 c -8.645 -8.646 -8.645 -22.713 0 -31.358 c 4.323 -4.322 10 -6.483 15.679 -6.483 c 5.678 0 11.356 2.161 15.678 6.483 c 8.644 8.644 8.645 22.707 0.005 31.352 c -0.002 0.002 -0.004 0.003 -0.005 0.005 c -0.002 0.002 -0.003 0.003 -0.004 0.005 C 44.184 61.481 30.123 61.48 21.48 52.837 z" style="stroke: none; stroke-width: 1; stroke-dasharray: none; stroke-linecap: butt; stroke-linejoin: miter; stroke-miterlimit: 10; fill: #fefefe; fill-rule: nonzero; opacity: 1;" transform=" matrix(1 0 0 1 0 0) " stroke-linecap="round" />
</g>
</svg>