<?xml version="1.0"?>
<svg width="640" height="640" xmlns="http://www.w3.org/2000/svg" xmlns:svg="http://www.w3.org/2000/svg" xmlns:xlink="http://www.w3.org/1999/xlink" preserveAspectRatio="xMidYMid meet" version="1.1">
 <defs>
  <path d="m599.62,325.49c0,151.77 -123.21,274.98 -274.98,274.98c-151.76,0 -274.97,-123.21 -274.97,-274.98c0,-151.76 123.21,-274.97 274.97,-274.97c151.77,0 274.98,123.21 274.98,274.97z" id="c3Wyq0kfYS"/>
  <mask height="689.95" id="maskanTyyngos" maskUnits="userSpaceOnUse" width="689.95" x="-20.33" y="-19.48">
   <rect fill="white" height="689.95" id="svg_1" width="689.95" x="-20.33" y="-19.48"/>
   <use fill="black" id="svg_2" xlink:href="#c3Wyq0kfYS"/>
  </mask>
  <path d="m334.97,96.07c4.54,0 8.23,3.68 8.23,8.23c0,46.94 0,179.54 0,226.48c0,4.54 -3.69,8.22 -8.23,8.22c-5.77,0 -14.88,0 -20.66,0c-4.54,0 -8.22,-3.68 -8.22,-8.22c0,-46.94 0,-179.54 0,-226.48c0,-4.55 3.68,-8.23 8.22,-8.23c5.78,0 14.89,0 20.66,0z" id="fxMeu932c"/>
  <path d="m471.96,338.21c0.01,3.1 -2.5,5.62 -5.59,5.63c-32.02,0.09 -122.45,0.37 -154.46,0.47c-3.1,0.01 -5.61,-2.49 -5.62,-5.59c-0.02,-6.3 -0.06,-19.59 -0.08,-25.89c-0.01,-3.1 2.49,-5.62 5.59,-5.63c32.01,-0.09 122.44,-0.37 154.45,-0.47c3.1,-0.01 5.62,2.5 5.63,5.59c0.02,6.3 0.06,19.59 0.08,25.89z" id="h65nGmP2BL"/>
 </defs>
 <g class="layer">
  <title>Layer 1</title>
  <path fill="none" fill-opacity="null" id="svg_11" stroke="#000000" stroke-dasharray="null" stroke-linecap="null" stroke-linejoin="null" stroke-opacity="0.02"/>
  <ellipse cx="103.84" cy="562.04" fill="#fefefe" id="svg_3" rx="80" ry="45" stroke="#000000" stroke-dasharray="null" stroke-linecap="null" stroke-linejoin="null" stroke-opacity="0.02" transform="rotate(-18.699, 103.843, 562.038)"/>
  <ellipse cx="506" cy="554" fill="#fefefe" id="svg_4" rx="77" ry="45" stroke="#000000" stroke-dasharray="null" stroke-linecap="null" stroke-linejoin="null" stroke-opacity="0.02" transform="rotate(-18.699, 506, 554)"/>
  <rect fill="#fefefe" height="359" id="svg_7" stroke="#000000" stroke-dasharray="null" stroke-linecap="null" stroke-linejoin="null" stroke-opacity="0.02" stroke-width="0" width="58" x="122" y="185"/>
  <rect fill="#fefefe" height="453" id="svg_8" stroke="#000000" stroke-dasharray="null" stroke-linecap="null" stroke-linejoin="null" stroke-opacity="0.02" width="58" x="522" y="84.5"/>
  <rect fill="#fefefe" height="37" id="svg_9" stroke="#000000" stroke-dasharray="null" stroke-linecap="null" stroke-linejoin="null" stroke-opacity="0.02" transform="rotate(-14.1985, 351.556, 146.245)" width="463.07" x="120.02" y="127.74"/>
  <rect fill="none" fill-opacity="null" height="0" id="svg_10" stroke="#000000" stroke-dasharray="null" stroke-linecap="null" stroke-linejoin="null" stroke-opacity="0.02" width="0" x="538.25" y="107.12"/>
  <path d="m537.42,112.06l0,-67.88l17.58,67.88z" fill="#fefefe" id="svg_16" stroke="#000000" stroke-dasharray="null" stroke-linecap="null" stroke-linejoin="null" stroke-opacity="0.02" transform="rotate(-90, 546.203, 78.1248)"/>
  <rect fill="#fefefe" height="0" id="svg_18" stroke="#000000" stroke-dasharray="null" stroke-linecap="null" stroke-linejoin="null" stroke-opacity="0.02" width="0" x="82.12" y="287.56"/>
 </g>
</svg>