<?xml version="1.0"?>
<svg width="16" height="16" xmlns="http://www.w3.org/2000/svg" xmlns:svg="http://www.w3.org/2000/svg">
 <g class="layer">
  <title>Layer 1</title>
  <path d="m1,2c0,-0.27 0.11,-0.52 0.29,-0.71c0.39,-0.39 1.03,-0.39 1.42,0l5.29,5.3l5.29,-5.3c0.39,-0.39 1.03,-0.39 1.42,0c0.18,0.19 0.29,0.44 0.29,0.71s-0.11,0.52 -0.29,0.71l-6,6c-0.39,0.39 -1.03,0.39 -1.42,0l-6,-6c-0.18,-0.19 -0.29,-0.44 -0.29,-0.71zm0,0" fill="#202020" id="svg_1"/>
  <path d="m1,8c0,-0.27 0.11,-0.52 0.29,-0.71c0.39,-0.39 1.03,-0.39 1.42,0l5.29,5.3l5.29,-5.3c0.39,-0.39 1.03,-0.39 1.42,0c0.18,0.19 0.29,0.44 0.29,0.71s-0.11,0.52 -0.29,0.71l-6,6c-0.39,0.39 -1.03,0.39 -1.42,0l-6,-6c-0.18,-0.19 -0.29,-0.44 -0.29,-0.71zm0,0" fill="#202020" id="svg_4" transform="matrix(1, 0, 0, 1, 0, 0)"/>
 </g>

</svg>